HIERARCHY
ROOT Hips
{
	OFFSET 0.000000 0.000000 0.000000
	CHANNELS 6 Xposition Yposition Zposition Xrotation Yrotation Zrotation
	JOINT LeftUpLeg_virtual
	{
		OFFSET 0.000000 0.000000 0.000000
		CHANNELS 3 Xrotation Yrotation Zrotation
		JOINT LeftUpLeg
		{
			OFFSET 11.394100 -6.187798 -0.413800
			CHANNELS 3 Xrotation Yrotation Zrotation
			JOINT LeftLeg
			{
				OFFSET 0.430247 -32.302673 3.732800
				CHANNELS 3 Xrotation Yrotation Zrotation
				JOINT LeftFoot
				{
					OFFSET -0.430247 -48.264931 -6.423300
					CHANNELS 3 Xrotation Yrotation Zrotation
					JOINT LeftToeBase
					{
						OFFSET 4.230900 -16.068199 23.438400
						CHANNELS 3 Xrotation Yrotation Zrotation
						JOINT LeftToe_End
						{
							OFFSET 4.510700 0.695400 19.974600
							CHANNELS 3 Xrotation Yrotation Zrotation
							End Site
							{
								OFFSET 0 0 0
							}
						}
					}
				}
			}
		}
	}
	JOINT RightUpLeg_virtual
	{
		OFFSET 0.000000 0.000000 0.000000
		CHANNELS 3 Xrotation Yrotation Zrotation
		JOINT RightUpLeg
		{
			OFFSET -11.333700 -6.187798 -0.413800
			CHANNELS 3 Xrotation Yrotation Zrotation
			JOINT RightLeg
			{
				OFFSET -0.430392 -32.302628 3.733000
				CHANNELS 3 Xrotation Yrotation Zrotation
				JOINT RightFoot
				{
					OFFSET 0.430392 -48.264973 -6.423500
					CHANNELS 3 Xrotation Yrotation Zrotation
					JOINT RightToeBase
					{
						OFFSET -4.230900 -16.068199 23.438400
						CHANNELS 3 Xrotation Yrotation Zrotation
						JOINT RightToe_End
						{
							OFFSET -4.510700 0.695400 19.974600
							CHANNELS 3 Xrotation Yrotation Zrotation
							End Site
							{
								OFFSET 0 0 0
							}
						}
					}
				}
			}
		}
	}
	JOINT Spine_virtual
	{
		OFFSET 0.000000 0.000000 0.000000
		CHANNELS 3 Xrotation Yrotation Zrotation
		JOINT Spine
		{
			OFFSET -0.002400 12.777504 0.315300
			CHANNELS 3 Xrotation Yrotation Zrotation
			JOINT Spine1
			{
				OFFSET -0.002067 5.816869 0.032633
				CHANNELS 3 Xrotation Yrotation Zrotation
				JOINT Spine1_split
				{
					OFFSET -0.002067 5.816869 0.032633
					CHANNELS 3 Xrotation Yrotation Zrotation
					JOINT Spine2
					{
						OFFSET -0.002067 5.816869 0.032633
						CHANNELS 3 Xrotation Yrotation Zrotation
						JOINT Neck_virtual
						{
							OFFSET 0.000000 0.000000 0.000000
							CHANNELS 3 Xrotation Yrotation Zrotation
							JOINT Neck
							{
								OFFSET -0.003700 21.199493 -0.826900
								CHANNELS 3 Xrotation Yrotation Zrotation
								JOINT Head
								{
									OFFSET 0.000000 20.442200 4.834800
									CHANNELS 3 Xrotation Yrotation Zrotation
									JOINT HeadTop_End
									{
										OFFSET 0.000000 34.668396 4.968400
										CHANNELS 3 Xrotation Yrotation Zrotation
										End Site
										{
											OFFSET 0 0 0
										}
									}
								}
							}
						}
						JOINT LeftShoulder_virtual
						{
							OFFSET 0.000000 0.000000 0.000000
							CHANNELS 3 Xrotation Yrotation Zrotation
							JOINT LeftShoulder
							{
								OFFSET 3.288150 8.794197 -1.372250
								CHANNELS 3 Xrotation Yrotation Zrotation
								JOINT LeftShoulder_split
								{
									OFFSET 3.288150 8.794197 -1.372250
									CHANNELS 3 Xrotation Yrotation Zrotation
									JOINT LeftArm
									{
										OFFSET 11.953299 -2.279007 -0.146200
										CHANNELS 3 Xrotation Yrotation Zrotation
										JOINT LeftForeArm
										{
											OFFSET 18.448900 0.000000 0.000000
											CHANNELS 3 Xrotation Yrotation Zrotation
											JOINT LeftHand
											{
												OFFSET 29.527798 0.000000 0.000000
												CHANNELS 3 Xrotation Yrotation Zrotation
												End Site
												{
													OFFSET 0 0 0
												}
											}
										}
									}
								}
							}
						}
						JOINT RightShoulder_virtual
						{
							OFFSET 0.000000 0.000000 0.000000
							CHANNELS 3 Xrotation Yrotation Zrotation
							JOINT RightShoulder
							{
								OFFSET -3.249400 8.794197 -1.372250
								CHANNELS 3 Xrotation Yrotation Zrotation
								JOINT RightShoulder_split
								{
									OFFSET -3.249400 8.794197 -1.372250
									CHANNELS 3 Xrotation Yrotation Zrotation
									JOINT RightArm
									{
										OFFSET -11.953299 -2.279007 -0.146200
										CHANNELS 3 Xrotation Yrotation Zrotation
										JOINT RightForeArm
										{
											OFFSET -18.448900 0.000000 0.000000
											CHANNELS 3 Xrotation Yrotation Zrotation
											JOINT RightHand
											{
												OFFSET -29.527802 0.000000 0.000000
												CHANNELS 3 Xrotation Yrotation Zrotation
												End Site
												{
													OFFSET 0 0 0
												}
											}
										}
									}
								}
							}
						}
					}
				}
			}
		}
	}
}
MOTION
Frames: 11
Frame Time: 0.03333333
0.450781 101.693626 -0.526260 0.000000 0.000000 0.000000 3.244576 -30.490941 2.172106 -17.821608 14.692031 12.316846 17.116480 15.198520 -2.123811 -1.277704 -4.804197 -5.305991 2.941631 0.469676 -0.604417 0.000000 0.000000 0.000000 3.826080 -29.796915 2.102829 -11.158304 -1.317253 -7.816455 8.985059 8.115117 -0.383721 -2.522570 -0.368113 2.897238 -1.460903 -0.714285 -0.654111 0.000000 0.000000 0.000000 3.235165 -29.149301 1.026968 7.438844 -0.095748 -0.941808 1.358290 -0.783232 2.357237 0.471959 0.162063 0.647032 0.000000 0.000000 0.000000 1.054253 -0.394631 2.510035 -4.571516 17.693576 -7.141391 -5.896288 15.393798 0.290170 0.000000 0.000000 0.000000 1.264032 -0.623225 2.626576 0.932529 -10.337874 0.310304 1.403527 -0.109854 0.305308 -59.831030 1.376183 -39.457631 9.360257 -59.990159 11.771081 0.000000 0.000000 0.000000 0.804232 -0.465175 2.685649 4.831626 6.078342 7.203130 -0.783190 -0.228961 -1.481072 0.119627 0.491701 63.356404 12.333756 23.482163 -3.907304 0.000000 0.000000 0.000000 
0.438350 101.710854 -0.463371 0.000000 0.000000 0.000000 3.370829 -30.464945 2.196222 -17.878708 14.643830 12.332337 17.069882 15.179843 -2.077196 -1.294421 -4.784678 -5.342121 2.897861 0.474574 -0.613359 0.000000 0.000000 0.000000 3.948149 -29.760176 2.114561 -11.197974 -1.252732 -7.792008 9.067757 8.165868 -0.403475 -2.485151 -0.328749 2.929855 -1.468702 -0.733201 -0.660065 0.000000 0.000000 0.000000 3.375617 -29.072188 1.047838 7.402011 -0.087305 -0.960089 1.337439 -0.799596 2.363387 0.547552 0.124781 0.717387 0.000000 0.000000 0.000000 1.044770 -0.400235 2.530184 -4.515152 17.868796 -7.214933 -5.867565 15.423832 0.326885 0.000000 0.000000 0.000000 1.236937 -0.625811 2.641425 0.915077 -10.229335 0.186711 1.505725 -0.191613 0.373647 -59.765924 1.444482 -39.385654 9.521326 -60.026756 11.849296 0.000000 0.000000 0.000000 0.794770 -0.468827 2.699110 4.777565 6.131914 7.349372 -0.964168 -0.286118 -1.446419 0.193749 0.546661 63.323196 12.325562 23.249832 -3.897837 0.000000 0.000000 0.000000 
0.406582 101.709381 -0.428940 0.000000 0.000000 0.000000 3.570656 -30.383000 2.235867 -18.028380 14.509702 12.356912 17.048702 15.160843 -2.042976 -1.327344 -4.746275 -5.420245 2.859539 0.475688 -0.597810 0.000000 0.000000 0.000000 4.133562 -29.703796 2.143293 -11.304885 -1.197320 -7.753464 9.173065 8.212658 -0.418384 -2.534107 -0.304835 2.935934 -1.413225 -0.749419 -0.663406 0.000000 0.000000 0.000000 3.617892 -29.001622 1.097971 7.370959 -0.065367 -0.975923 1.302689 -0.791808 2.366251 0.582727 0.058710 0.751129 0.000000 0.000000 0.000000 1.036485 -0.378462 2.538676 -4.408121 18.213990 -7.333569 -5.925274 15.626805 0.444406 0.000000 0.000000 0.000000 1.213609 -0.602129 2.646213 0.892349 -10.040396 0.062421 1.590857 -0.199761 0.463099 -59.745372 1.503068 -39.325415 9.611985 -60.170592 11.856979 0.000000 0.000000 0.000000 0.779936 -0.450156 2.700476 4.732335 6.203209 7.533081 -1.068343 -0.351323 -1.491826 0.278180 0.593440 63.285159 12.290810 23.017601 -3.901035 0.000000 0.000000 0.000000 
0.355154 101.687469 -0.413979 0.000000 0.000000 0.000000 3.821910 -30.212051 2.287727 -18.261733 14.311136 12.386726 17.054615 15.151351 -2.030766 -1.375436 -4.691995 -5.520297 2.846847 0.472781 -0.563557 0.000000 0.000000 0.000000 4.363148 -29.618460 2.189605 -11.478995 -1.163363 -7.715581 9.273580 8.258722 -0.426906 -2.642519 -0.291788 2.941054 -1.315552 -0.758297 -0.670403 0.000000 0.000000 0.000000 3.930717 -28.927945 1.177224 7.339648 -0.034028 -0.984911 1.254323 -0.760281 2.364379 0.525115 -0.020113 0.735730 0.000000 0.000000 0.000000 1.027046 -0.334948 2.538966 -4.237786 18.734922 -7.532637 -6.083119 16.016722 0.608217 0.000000 0.000000 0.000000 1.196615 -0.558140 2.641572 0.871995 -9.798333 -0.039056 1.645615 -0.092692 0.578158 -59.786599 1.546913 -39.309596 9.609083 -60.328582 11.776545 0.000000 0.000000 0.000000 0.760924 -0.412967 2.691767 4.695865 6.299290 7.716876 -1.079062 -0.386846 -1.614635 0.361674 0.637665 63.271471 12.235406 22.777586 -3.912509 0.000000 0.000000 0.000000 
0.287733 101.649673 -0.411041 0.000000 0.000000 0.000000 4.099228 -29.942538 2.349266 -18.559924 14.056725 12.417146 17.089461 15.161763 -2.048616 -1.433450 -4.623882 -5.625382 2.857722 0.468177 -0.508119 0.000000 0.000000 0.000000 4.625042 -29.466095 2.254509 -11.691553 -1.162227 -7.689306 9.358337 8.306989 -0.429065 -2.788529 -0.284325 2.962503 -1.214733 -0.759791 -0.676828 0.000000 0.000000 0.000000 4.290624 -28.807084 1.281022 7.297510 0.000629 -0.989202 1.202278 -0.710785 2.356547 0.441466 -0.133914 0.733722 0.000000 0.000000 0.000000 1.015603 -0.277088 2.532272 -3.985222 19.439108 -7.857374 -6.346644 16.610354 0.784988 0.000000 0.000000 0.000000 1.187616 -0.500528 2.631671 0.861648 -9.532533 -0.104565 1.674672 0.089756 0.691942 -59.907343 1.610076 -39.364081 9.512174 -60.430440 11.606493 0.000000 0.000000 0.000000 0.744147 -0.363351 2.676313 4.666997 6.420057 7.860513 -1.028805 -0.368717 -1.770149 0.451067 0.660807 63.298491 12.165618 22.555675 -3.928028 0.000000 0.000000 0.000000 
0.197724 101.599792 -0.423492 0.000000 0.000000 0.000000 4.391595 -29.570085 2.425997 -18.884525 13.762276 12.440676 17.140744 15.187916 -2.099453 -1.490375 -4.553730 -5.725080 2.873932 0.461248 -0.428272 0.000000 0.000000 0.000000 4.903932 -29.201367 2.335197 -11.916029 -1.210596 -7.675604 9.425966 8.349274 -0.427547 -2.960921 -0.288224 2.989478 -1.117264 -0.754122 -0.674925 0.000000 0.000000 0.000000 4.671313 -28.595722 1.402880 7.232969 0.035596 -0.992890 1.154063 -0.651670 2.341192 0.370104 -0.295665 0.762721 0.000000 0.000000 0.000000 1.002340 -0.211655 2.519967 -3.629304 20.330003 -8.353910 -6.715149 17.434191 0.936882 0.000000 0.000000 0.000000 1.191181 -0.436577 2.619719 0.865206 -9.274687 -0.119921 1.696232 0.236261 0.755779 -60.148791 1.693204 -39.525844 9.348412 -60.462733 11.371794 0.000000 0.000000 0.000000 0.734907 -0.307546 2.656328 4.644755 6.563749 7.930928 -0.927911 -0.321134 -1.914207 0.534386 0.615266 63.377066 12.091135 22.376487 -3.946522 0.000000 0.000000 0.000000 
0.085211 101.540810 -0.439922 0.000000 0.000000 0.000000 4.684930 -29.093590 2.518946 -19.214012 13.427629 12.459287 17.196608 15.218525 -2.180092 -1.540849 -4.496598 -5.822785 2.887613 0.451621 -0.331903 0.000000 0.000000 0.000000 5.182758 -28.816548 2.424306 -12.142633 -1.333991 -7.667986 9.502713 8.359832 -0.427460 -3.158417 -0.319947 2.993736 -1.004626 -0.744757 -0.653049 0.000000 0.000000 0.000000 5.057389 -28.266019 1.532744 7.144180 0.070385 -1.002081 1.120567 -0.591352 2.314647 0.348478 -0.443769 0.804872 0.000000 0.000000 0.000000 0.997036 -0.144837 2.502763 -3.150700 21.405103 -9.046854 -7.182857 18.480422 1.047835 0.000000 0.000000 0.000000 1.206087 -0.370976 2.605447 0.882356 -9.049066 -0.097160 1.722730 0.298094 0.797513 -60.527463 1.783963 -39.806848 9.183288 -60.466312 11.129425 0.000000 0.000000 0.000000 0.729153 -0.250186 2.631405 4.629860 6.723304 7.923281 -0.789780 -0.282055 -2.010807 0.618505 0.454326 63.493240 12.020991 22.276155 -3.962824 0.000000 0.000000 0.000000 
-0.041503 101.475555 -0.453068 0.000000 0.000000 0.000000 4.972759 -28.516788 2.616214 -19.538917 13.053852 12.479731 17.257267 15.229987 -2.286252 -1.584932 -4.471872 -5.925989 2.915995 0.437387 -0.228991 0.000000 0.000000 0.000000 5.453102 -28.303991 2.511352 -12.363682 -1.556960 -7.661306 9.619543 8.324594 -0.429014 -3.381978 -0.389539 2.960454 -0.886834 -0.739103 -0.610987 0.000000 0.000000 0.000000 5.430193 -27.807910 1.658891 7.032189 0.105765 -1.019117 1.107628 -0.533597 2.277434 0.363096 -0.548026 0.862545 0.000000 0.000000 0.000000 1.008664 -0.080385 2.481702 -2.530238 22.640820 -9.941389 -7.735906 19.716854 1.114481 0.000000 0.000000 0.000000 1.229402 -0.304042 2.590711 0.908581 -8.861636 -0.055042 1.744312 0.346875 0.784373 -61.005836 1.885271 -40.161130 9.052189 -60.476339 10.912648 0.000000 0.000000 0.000000 0.723559 -0.197864 2.601933 4.619027 6.897964 7.846437 -0.632270 -0.274788 -2.067991 0.747632 0.171023 63.608527 11.969701 22.251733 -3.973597 0.000000 0.000000 0.000000 
-0.176378 101.405464 -0.453117 0.000000 0.000000 0.000000 5.254952 -27.821642 2.706402 -19.860093 12.646191 12.508861 17.331999 15.206810 -2.414947 -1.634542 -4.500823 -6.033702 2.970208 0.416390 -0.133762 0.000000 0.000000 0.000000 5.708413 -27.665746 2.585747 -12.575732 -1.888323 -7.656137 9.798552 8.241398 -0.428361 -3.635034 -0.490531 2.898709 -0.780261 -0.740356 -0.561286 0.000000 0.000000 0.000000 5.779912 -27.219880 1.770250 6.904978 0.146582 -1.041488 1.113866 -0.478283 2.233603 0.396851 -0.631648 0.870934 0.000000 0.000000 0.000000 1.030562 -0.019225 2.457479 -1.770532 23.983226 -11.019563 -8.348227 21.070060 1.150415 0.000000 0.000000 0.000000 1.255465 -0.234554 2.577437 0.939226 -8.707969 -0.010871 1.793176 0.429789 0.740134 -61.487064 1.996826 -40.496929 8.978399 -60.495628 10.742214 0.000000 0.000000 0.000000 0.719547 -0.149520 2.569176 4.606069 7.092519 7.709912 -0.458955 -0.285641 -2.095625 0.963679 -0.191995 63.690701 11.946357 22.272806 -3.984706 0.000000 0.000000 0.000000 
-0.318195 101.325500 -0.444954 0.000000 0.000000 0.000000 5.528572 -27.008188 2.776599 -20.191496 12.185842 12.547594 17.421837 15.145740 -2.557588 -1.689546 -4.586651 -6.156596 3.046267 0.390921 -0.046380 0.000000 0.000000 0.000000 5.947860 -26.900135 2.639222 -12.781905 -2.317573 -7.654187 10.049294 8.116788 -0.422574 -3.923838 -0.607634 2.818490 -0.688674 -0.746017 -0.515366 0.000000 0.000000 0.000000 6.105851 -26.511565 1.861909 6.767529 0.200063 -1.067422 1.129257 -0.423466 2.187745 0.429128 -0.695813 0.861481 0.000000 0.000000 0.000000 1.056935 0.043074 2.434911 -0.897608 25.371699 -12.253600 -8.988368 22.460358 1.181640 0.000000 0.000000 0.000000 1.283398 -0.156481 2.566523 0.967004 -8.570911 -0.003814 1.852691 0.541962 0.713903 -61.872081 2.151646 -40.701306 8.966382 -60.534068 10.621912 0.000000 0.000000 0.000000 0.717314 -0.099182 2.539204 4.589427 7.320154 7.534380 -0.300199 -0.268407 -2.094203 1.283499 -0.570997 63.717537 11.955432 22.317959 -4.003127 0.000000 0.000000 0.000000 
-0.470320 101.233833 -0.432167 0.000000 0.000000 0.000000 5.787895 -26.078214 2.821252 -20.542475 11.672636 12.600227 17.539330 15.056565 -2.713125 -1.739563 -4.721304 -6.284833 3.131155 0.360647 0.036747 0.000000 0.000000 0.000000 6.172931 -26.016464 2.669735 -12.969033 -2.828948 -7.654314 10.355612 7.958758 -0.409788 -4.255889 -0.731165 2.726809 -0.584390 -0.752580 -0.482881 0.000000 0.000000 0.000000 6.409567 -25.692407 1.931465 6.623433 0.272942 -1.096420 1.149285 -0.360640 2.146982 0.468532 -0.759077 0.847824 0.000000 0.000000 0.000000 1.079016 0.114397 2.418795 0.055038 26.739347 -13.607930 -9.639186 23.810403 1.231299 0.000000 0.000000 0.000000 1.312574 -0.066321 2.560999 0.983059 -8.420465 -0.066293 1.921067 0.651398 0.708860 -62.106077 2.381432 -40.696436 9.000438 -60.651793 10.542011 0.000000 0.000000 0.000000 0.720150 -0.037008 2.515489 4.567120 7.590530 7.332985 -0.152093 -0.208380 -2.065202 1.686762 -0.928962 63.682163 11.990063 22.368282 -4.037613 0.000000 0.000000 0.000000 
